# xmcd
#
# Track frame offsets:
# 150
# 12163
# 26324
# 38112
# 52587
# 67983
# 85204
# 96190
# 109183
# 123417
#
# Disc length: 1806 seconds
#
#
# Revision: 0
# Processed by: cddbd v1.5.1PL2 Copyright (c) Steve Scherf et al.
# Submitted via: FreeRIP 2.945 
#
DISCID=6e070c0a
DTITLE=Gene Watson - Memories To Burn
DYEAR=1985
DGENRE=Country
TTITLE0=Memories To Burn
TTITLE1=The Note
TTITLE2=Cold Summer Day In Georgia
TTITLE3=If I Painted A Picture
TTITLE4=I Want My Rib Back
TTITLE5=Carmen
TTITLE6=Stranger In Our House
TTITLE7=The New York Times
TTITLE8=Speak Of The Devil
TTITLE9=Get Along Little Doggie
EXTD=
EXTT0=
EXTT1=
EXTT2=
EXTT3=
EXTT4=
EXTT5=
EXTT6=
EXTT7=
EXTT8=
EXTT9=
PLAYORDER=
